<?xml version="1.0" encoding="utf-8"?>
<!-- Svg Vector Icons : http://www.onlinewebfonts.com/icon -->
<!DOCTYPE svg PUBLIC "-//W3C//DTD SVG 1.1//EN" "http://www.w3.org/Graphics/SVG/1.1/DTD/svg11.dtd">
<svg version="1.1" xmlns="http://www.w3.org/2000/svg" xmlns:xlink="http://www.w3.org/1999/xlink" x="0px" y="0px" viewBox="0 0 256 256" enable-background="new 0 0 256 256" xml:space="preserve">
<metadata> Svg Vector Icons : http://www.onlinewebfonts.com/icon </metadata>
<g><g><path fill="#000000" d="M128,10C62.8,10,10,62.8,10,128c0,65.2,52.8,118,118,118c65.2,0,118-52.8,118-118C246,62.8,193.2,10,128,10z M98.5,185.1H69V81.9h29.5V185.1z M84.7,75.6c-7.6,0-13.8-6.2-13.8-13.8c0-7.6,6.2-13.8,13.8-13.8c7.6,0,13.8,6.2,13.8,13.8C98.5,69.4,92.3,75.6,84.7,75.6z M201.8,185.1h-29.5v-63.8c0-7.5-2.1-12.7-11.3-12.7c-15.2,0-18.2,12.7-18.2,12.7v63.8h-29.5V81.9h29.5v9.9c4.2-3.2,14.8-9.8,29.5-9.8c9.6,0,29.5,5.7,29.5,40.3V185.1z"/></g></g>
</svg>