<?xml version="1.0" encoding="utf-8"?>
<!-- Svg Vector Icons : http://www.onlinewebfonts.com/icon -->
<!DOCTYPE svg PUBLIC "-//W3C//DTD SVG 1.1//EN" "http://www.w3.org/Graphics/SVG/1.1/DTD/svg11.dtd">
<svg version="1.1" xmlns="http://www.w3.org/2000/svg" xmlns:xlink="http://www.w3.org/1999/xlink" x="0px" y="0px" viewBox="0 0 256 256" enable-background="new 0 0 256 256" xml:space="preserve">
<metadata> Svg Vector Icons : http://www.onlinewebfonts.com/icon </metadata>
<g><g><path fill="#000000" d="M198.1,131c-4.5,0-8.2,3.7-8.2,8.2c0,0.5,0,1,0.1,1.4v47.5c0,13.5-11,24.5-24.5,24.5H50.9c-13.5,0-24.5-11-24.5-24.5V73.4c0-13.5,11-24.5,24.5-24.5h97.3l0,0c0.1,0,0.2,0,0.3,0c4.5,0,8.2-3.7,8.2-8.2c0-4.5-3.7-8.2-8.2-8.2c-0.1,0-0.2,0-0.3,0l0,0H50.9C28.3,32.5,10,50.8,10,73.4v114.7c0,22.5,18.3,40.9,40.9,40.9h114.7c22.5,0,40.9-18.3,40.9-40.9v-49.5h-0.1C206,134.3,202.4,131,198.1,131z"/><path fill="#000000" d="M237.5,27.1l-64.6,0.2c-7.6,0-9.3,4.5-4,10l24.5,25.3l-77.9,78.2c-4.8,4.8-4.8,12.6,0,17.4c4.8,4.8,12.6,4.8,17.4,0l77.6-77.9l25.4,26.3c5.3,5.5,9.7,3.7,9.8-4.1l0.4-66.6C246,31,242.2,27.1,237.5,27.1z"/></g></g>
</svg>